<svg xmlns="http://www.w3.org/2000/svg" viewBox="0 0 73.999992 74.000002">
    <path fill="#ff0043" fill-rule="evenodd"
          d="M36.604774 2C22.119845 2 13.044956 18.043324 24.28711 28.711559 14.07868 26.140007 2 32.832925 2 43.932062c0 8.761947 7.9222714 15.774266 17.689453 15.769623 8.120642-.0039 15.60586-5.259569 17.302735-12.576979 1.698067 7.322527 8.795782 12.576979 17.318359 12.576979 8.913761 0 17.472354-6.080039 17.689453-15.769623.208827-9.320383-9.669016-17.923251-22.275391-15.211702C60.581715 18.585571 52.736478 2 36.604774 2z"
          style="isolation:auto;mix-blend-mode:normal" color="#000" overflow="visible"/>
    <path fill="#ff0043" fill-rule="evenodd"
          d="M20.227917 72c9.405449-4.157659 16.783959-14.236387 16.783959-29.750892 0 15.484626 7.341664 25.578424 16.721145 29.750892H20.227917z"
          style="isolation:auto;mix-blend-mode:normal" color="#000" overflow="visible"/>
</svg>
